SplineFontDB: 3.0
FontName: NjojsIT
FullName: NjojsIT
FamilyName: NjojsIT
Weight: Medium
Copyright: Zachary Weaver (cc BY SA) 2013
UComments: "2013-9-15: Created." 
Version: 001.000
ItalicAngle: 0
UnderlinePosition: -100
UnderlineWidth: 50
Ascent: 800
Descent: 200
LayerCount: 2
Layer: 0 0 "Arri+AOgA-re"  1
Layer: 1 0 "Avant"  0
XUID: [1021 328 700771923 941296]
FSType: 0
OS2Version: 0
OS2_WeightWidthSlopeOnly: 0
OS2_UseTypoMetrics: 1
CreationTime: 1379266076
ModificationTime: 1383622347
PfmFamily: 17
TTFWeight: 500
TTFWidth: 5
LineGap: 90
VLineGap: 90
OS2TypoAscent: 0
OS2TypoAOffset: 1
OS2TypoDescent: 0
OS2TypoDOffset: 1
OS2TypoLinegap: 90
OS2WinAscent: 0
OS2WinAOffset: 1
OS2WinDescent: 0
OS2WinDOffset: 1
HheadAscent: 0
HheadAOffset: 1
HheadDescent: 0
HheadDOffset: 1
OS2Vendor: 'PfEd'
MarkAttachClasses: 1
DEI: 91125
LangName: 1033 
Encoding: UnicodeFull
UnicodeInterp: none
NameList: Adobe Glyph List
DisplaySize: -96
AntiAlias: 1
FitToEm: 1
WinInfo: 0 18 8
BeginPrivate: 0
EndPrivate
Grid
-170 225 m 0
 -170 625 95 784 130 819 c 0
 136 825 143 828 150 828 c 0
 159 828 168 824 176 816 c 0
 184 808 188 799 188 790 c 0
 188 783 185 776 179 770 c 0
 144 735 -100 575 -100 225 c 0
 -100 -175 -486 -364 -521 -399 c 0
 -527 -405 -534 -408 -541 -408 c 0
 -550 -408 -559 -404 -567 -396 c 0
 -575 -388 -579 -379 -579 -370 c 0
 -579 -363 -576 -356 -570 -350 c 0
 -535 -315 -170 -125 -170 225 c 0
450 225 m 25
 0 225 l 25
225 450 m 25
 225 0 l 25
0 450 m 25
 450 450 l 25
 450 0 l 25
 0 0 l 25
 0 450 l 25
EndSplineSet
TeXData: 1 0 0 838860 419430 279620 545260 1048576 279620 783286 444596 497025 792723 393216 433062 380633 303038 157286 324010 404750 52429 2506097 1059062 262144
BeginChars: 1114112 59

StartChar: s
Encoding: 115 115 0
Width: 800
VWidth: 0
Flags: HW
LayerCount: 2
Fore
SplineSet
323 224 m 0
 323 139 391 71 476 71 c 0
 561 71 629 139 629 224 c 0
 629 309 561 377 476 377 c 0
 391 377 323 309 323 224 c 0
250 224 m 0
 250 348 349 448 472 448 c 0
 595 448 694 348 694 224 c 0
 694 100 595 0 472 0 c 0
 349 0 250 100 250 224 c 0
EndSplineSet
Validated: 1
EndChar

StartChar: d
Encoding: 100 100 1
Width: 800
VWidth: 0
Flags: HW
LayerCount: 2
Fore
SplineSet
440 420 m 0
 440 440 455 450 475 450 c 0
 495 450 510 440 510 420 c 0
 510 370 510 310 510 260 c 1
 560 260 620 260 670 260 c 0
 690 260 700 245 700 225 c 0
 700 205 690 190 670 190 c 4
 620 190 560 190 510 190 c 1
 510 140 510 80 510 30 c 0
 510 10 495 0 475 0 c 0
 455 0 440 10 440 30 c 0
 440 80 440 140 440 190 c 1
 390 190 330 190 280 190 c 0
 260 190 250 205 250 225 c 0
 250 245 260 260 280 260 c 0
 330 260 390 260 440 260 c 1
 440 310 440 370 440 420 c 0
EndSplineSet
Validated: 1
EndChar

StartChar: f
Encoding: 102 102 2
Width: 800
VWidth: 0
Flags: HW
LayerCount: 2
Fore
SplineSet
570 190 m 4
 503 190 419 186 355 186 c 4
 323 186 297 187 280 190 c 4
 275 191 250 205 250 225 c 4
 250 245 275 259 280 260 c 4
 297 263 323 264 355 264 c 4
 419 264 503 260 570 260 c 4
 610 260 610 270 620 300 c 4
 621 303 622 306 622 309 c 4
 622 329 600 344 570 350 c 4
 520 360 330 375 280 380 c 4
 270 381 250 395 250 415 c 4
 250 435 270 449 280 450 c 4
 283 450 286 450 291 450 c 4
 361 450 596 416 600 415 c 4
 630 405 653 386 665 370 c 4
 680 350 700 330 700 300 c 4
 700 285 690 255 660 225 c 5
 690 195 700 165 700 150 c 4
 700 120 680 100 665 80 c 4
 653 64 630 45 600 35 c 4
 596 34 382 -1 302 -1 c 4
 293 -1 285 -1 280 0 c 4
 275 1 250 15 250 35 c 4
 250 55 275 69 280 70 c 4
 330 80 520 90 570 100 c 4
 600 106 622 121 622 141 c 4
 622 144 621 147 620 150 c 4
 610 180 610 190 570 190 c 4
EndSplineSet
Validated: 1
EndChar

StartChar: j
Encoding: 106 106 4
Width: 800
VWidth: 0
Flags: HW
LayerCount: 2
Fore
SplineSet
250 225 m 4
 250 295 290 330 310 340 c 4
 347 358 388 373 440 378 c 5
 440 420 l 6
 440 440 455 450 475 450 c 4
 495 450 510 440 510 420 c 6
 510 380 l 5
 670 380 l 6
 690 380 700 365 700 345 c 4
 700 325 690 310 670 310 c 4
 620 310 570 310 510 310 c 5
 510 225 l 5
 510 140 l 5
 570 140 620 140 670 140 c 4
 690 140 700 125 700 105 c 4
 700 85 690 70 670 70 c 6
 510 70 l 5
 510 30 l 6
 510 10 495 0 475 0 c 4
 455 0 440 10 440 30 c 6
 440 72 l 5
 388 77 347 92 310 110 c 4
 290 120 250 155 250 225 c 4
440 143 m 5
 440 225 l 5
 440 307 l 5
 411 303 386 295 350 280 c 4
 327 270 320 245 320 225 c 4
 320 205 327 180 350 170 c 4
 386 155 411 147 440 143 c 5
EndSplineSet
Validated: 1
EndChar

StartChar: y
Encoding: 121 121 5
Width: 0
VWidth: 0
Flags: HW
LayerCount: 2
Fore
SplineSet
-550 225 m 4
 -550 325 -550 440 -550 490 c 4
 -550 510 -535 520 -515 520 c 4
 -495 520 -480 510 -480 490 c 4
 -480 440 -480 325 -480 225 c 4
 -480 125 -480 10 -480 -40 c 4
 -480 -60 -495 -70 -515 -70 c 4
 -535 -70 -550 -60 -550 -40 c 4
 -550 10 -550 125 -550 225 c 4
EndSplineSet
Validated: 1
EndChar

StartChar: k
Encoding: 107 107 6
Width: 800
VWidth: 0
Flags: HW
LayerCount: 2
Fore
SplineSet
545 190 m 4
 533 190 519 190 504 190 c 4
 435 190 347 192 310 210 c 4
 290 220 250 250 250 320 c 4
 250 390 290 420 310 430 c 4
 347 448 435 450 504 450 c 4
 519 450 533 450 545 450 c 4
 595 450 620 450 670 450 c 4
 690 450 700 435 700 415 c 4
 700 395 690 380 670 380 c 4
 620 380 640 380 580 380 c 4
 542 380 495 384 450 384 c 4
 413 384 377 381 350 370 c 4
 327 360 320 340 320 320 c 4
 320 300 327 280 350 270 c 4
 377 259 413 256 450 256 c 4
 495 256 542 260 580 260 c 4
 640 260 615 260 635 260 c 4
 655 260 700 230 700 190 c 4
 700 181 698 153 680 140 c 4
 616 94 434 58 308 8 c 4
 303 6 297 5 291 5 c 4
 276 5 261 12 254 24 c 4
 251 29 250 35 250 41 c 4
 250 55 257 70 270 76 c 4
 398 132 490 146 630 190 c 29
 597 190 595 190 545 190 c 4
EndSplineSet
Validated: 1
EndChar

StartChar: g
Encoding: 103 103 7
Width: 0
VWidth: 0
Flags: HW
LayerCount: 2
Fore
SplineSet
-170 225 m 4
 -170 325 -170 440 -170 490 c 4
 -170 510 -155 520 -135 520 c 4
 -115 520 -100 510 -100 490 c 4
 -100 440 -100 325 -100 225 c 4
 -100 -175 -486 -364 -521 -399 c 4
 -527 -405 -534 -408 -541 -408 c 4
 -550 -408 -559 -404 -567 -396 c 4
 -575 -388 -579 -379 -579 -370 c 4
 -579 -363 -576 -356 -570 -350 c 4
 -535 -315 -170 -125 -170 225 c 4
EndSplineSet
Validated: 1
EndChar

StartChar: h
Encoding: 104 104 8
Width: 0
VWidth: 0
Flags: HW
LayerCount: 2
Fore
SplineSet
-170 225 m 4
 -170 625 95 784 130 819 c 4
 136 825 143 828 150 828 c 4
 159 828 168 824 176 816 c 4
 184 808 188 799 188 790 c 4
 188 783 185 776 179 770 c 4
 144 735 -100 575 -100 225 c 4
 -100 -175 -486 -364 -521 -399 c 4
 -527 -405 -534 -408 -541 -408 c 4
 -550 -408 -559 -404 -567 -396 c 4
 -575 -388 -579 -379 -579 -370 c 4
 -579 -363 -576 -356 -570 -350 c 4
 -535 -315 -170 -125 -170 225 c 4
EndSplineSet
Validated: 1
EndChar

StartChar: H
Encoding: 72 72 9
Width: 0
VWidth: 0
Flags: HW
LayerCount: 2
Fore
SplineSet
-550 225 m 4
 -550 625 -285 784 -250 819 c 4
 -244 825 -237 828 -230 828 c 4
 -221 828 -212 824 -204 816 c 4
 -196 808 -192 799 -192 790 c 4
 -192 783 -195 776 -201 770 c 4
 -236 735 -480 575 -480 225 c 4
 -480 -175 -866 -364 -901 -399 c 4
 -907 -405 -914 -408 -921 -408 c 4
 -930 -408 -939 -404 -947 -396 c 4
 -955 -388 -959 -379 -959 -370 c 4
 -959 -363 -956 -356 -950 -350 c 4
 -915 -315 -550 -125 -550 225 c 4
EndSplineSet
Validated: 1
EndChar

StartChar: G
Encoding: 71 71 10
Width: 0
VWidth: 0
Flags: HW
LayerCount: 2
Fore
SplineSet
-550 225 m 4
 -550 325 -550 440 -550 490 c 4
 -550 510 -535 520 -515 520 c 4
 -495 520 -480 510 -480 490 c 4
 -480 440 -480 325 -480 225 c 4
 -480 -175 -866 -364 -901 -399 c 4
 -907 -405 -914 -408 -921 -408 c 4
 -930 -408 -939 -404 -947 -396 c 4
 -955 -388 -959 -379 -959 -370 c 4
 -959 -363 -956 -356 -950 -350 c 4
 -915 -315 -550 -125 -550 225 c 4
EndSplineSet
Validated: 1
EndChar

StartChar: l
Encoding: 108 108 11
Width: 225
VWidth: 0
Flags: HW
LayerCount: 2
Fore
SplineSet
95 260 m 4
 115 260 125 245 125 225 c 4
 125 205 115 190 95 190 c 4
 45 190 -90 190 -140 190 c 4
 -160 190 -170 205 -170 225 c 4
 -170 245 -160 260 -140 260 c 4
 -90 260 45 260 95 260 c 4
EndSplineSet
Validated: 1
EndChar

StartChar: L
Encoding: 76 76 12
Width: 0
VWidth: 0
Flags: HW
LayerCount: 2
Fore
SplineSet
-275 225 m 5
 -311 261 -325 274 -325 274 c 5
 -290 309 -101 498 -66 533 c 4
 -60 539 -53 542 -46 542 c 0
 -37 542 -28 537 -20 529 c 4
 -12 521 -8 512 -8 503 c 0
 -8 496 -11 489 -17 483 c 4
 -52 448 -240 260 -275 225 c 5
EndSplineSet
Validated: 1
EndChar

StartChar: x
Encoding: 120 120 13
Width: 0
VWidth: 0
Flags: HW
LayerCount: 2
Fore
SplineSet
-554 -200 m 4
 -554 -170 -530 -146 -500 -146 c 4
 -470 -146 -446 -170 -446 -200 c 4
 -446 -230 -470 -254 -500 -254 c 4
 -530 -254 -554 -230 -554 -200 c 4
EndSplineSet
Validated: 1
EndChar

StartChar: c
Encoding: 99 99 14
Width: 0
VWidth: 0
Flags: HW
LayerCount: 2
Fore
SplineSet
-295 -328 m 0
 -289 -334 -286 -341 -286 -348 c 0
 -286 -357 -290 -366 -298 -374 c 0
 -306 -382 -315 -387 -324 -387 c 0
 -331 -387 -338 -384 -344 -378 c 0
 -379 -343 -475 -247 -510 -212 c 0
 -516 -206 -519 -199 -519 -192 c 0
 -519 -183 -515 -174 -507 -166 c 0
 -499 -158 -490 -153 -481 -153 c 0
 -474 -153 -467 -156 -461 -162 c 0
 -426 -197 -330 -293 -295 -328 c 0
EndSplineSet
Validated: 1
EndChar

StartChar: v
Encoding: 118 118 15
Width: 0
VWidth: 0
Flags: HW
LayerCount: 2
Fore
SplineSet
-276 -141 m 0
 -227 -190 -223 -215 -223 -265 c 0
 -223 -315 -266 -378 -308 -420 c 0
 -314 -426 -321 -429 -328 -429 c 0
 -337 -429 -346 -425 -354 -417 c 0
 -362 -409 -367 -400 -367 -391 c 0
 -367 -384 -364 -377 -358 -371 c 0
 -330 -343 -294 -295 -294 -265 c 0
 -294 -235 -305 -211 -326 -190 c 0
 -347 -169 -370 -159 -400 -159 c 0
 -430 -159 -478 -194 -506 -222 c 0
 -512 -228 -519 -231 -526 -231 c 0
 -535 -231 -544 -227 -552 -219 c 0
 -560 -211 -565 -202 -565 -193 c 0
 -565 -186 -562 -179 -556 -173 c 0
 -514 -131 -450 -88 -400 -88 c 0
 -350 -88 -325 -92 -276 -141 c 0
EndSplineSet
Validated: 1
EndChar

StartChar: b
Encoding: 98 98 16
Width: 0
VWidth: 0
Flags: HW
LayerCount: 2
Fore
SplineSet
-477 -343 m 0
 -507 -317 -562 -272 -562 -222 c 0
 -562 -172 -555 -143 -520 -108 c 0
 -488 -76 -442 -66 -407 -66 c 0
 -372 -66 -340 -84 -308 -116 c 0
 -302 -122 -299 -129 -299 -136 c 0
 -299 -145 -303 -154 -311 -162 c 0
 -319 -170 -328 -175 -337 -175 c 0
 -344 -175 -351 -172 -357 -166 c 0
 -374 -149 -387 -137 -407 -137 c 0
 -427 -137 -450 -137 -471 -158 c 0
 -490 -177 -491 -190 -491 -215 c 0
 -491 -217 -491 -219 -491 -222 c 0
 -491 -252 -448 -278 -428 -293 c 0
 -408 -308 -325 -330 -280 -330 c 8
 -262 -330 -250 -345 -250 -365 c 0
 -250 -385 -260 -400 -280 -400 c 0
 -330 -400 -454 -363 -477 -343 c 0
EndSplineSet
Validated: 1
EndChar

StartChar: n
Encoding: 110 110 17
Width: 0
VWidth: 0
Flags: HW
LayerCount: 2
Fore
SplineSet
-315 -123 m 0
 -285 -149 -230 -194 -230 -244 c 0
 -230 -294 -237 -323 -272 -358 c 0
 -304 -390 -350 -400 -385 -400 c 0
 -420 -400 -452 -382 -484 -350 c 0
 -490 -344 -493 -337 -493 -330 c 0
 -493 -321 -489 -312 -481 -304 c 0
 -473 -296 -464 -291 -455 -291 c 0
 -448 -291 -441 -294 -435 -300 c 0
 -418 -317 -405 -329 -385 -329 c 0
 -365 -329 -342 -329 -321 -308 c 0
 -302 -289 -301 -276 -301 -251 c 0
 -301 -249 -301 -247 -301 -244 c 0
 -301 -214 -344 -188 -364 -173 c 0
 -384 -158 -467 -136 -512 -136 c 8
 -530 -136 -542 -121 -542 -101 c 0
 -542 -81 -532 -66 -512 -66 c 0
 -462 -66 -338 -103 -315 -123 c 0
EndSplineSet
Validated: 1
EndChar

StartChar: m
Encoding: 109 109 18
Width: 0
VWidth: 0
Flags: HW
LayerCount: 2
Fore
SplineSet
-594 -220 m 4
 -594 -190 -570 -166 -540 -166 c 4
 -510 -166 -486 -190 -486 -220 c 4
 -486 -250 -510 -274 -540 -274 c 4
 -570 -274 -594 -250 -594 -220 c 4
-315 -123 m 0
 -285 -149 -230 -194 -230 -244 c 0
 -230 -294 -237 -323 -272 -358 c 0
 -304 -390 -350 -400 -385 -400 c 0
 -420 -400 -452 -382 -484 -350 c 0
 -490 -344 -493 -337 -493 -330 c 0
 -493 -321 -489 -312 -481 -304 c 0
 -473 -296 -464 -291 -455 -291 c 0
 -448 -291 -441 -294 -435 -300 c 0
 -418 -317 -405 -329 -385 -329 c 0
 -365 -329 -342 -329 -321 -308 c 0
 -302 -289 -301 -276 -301 -251 c 0
 -301 -249 -301 -247 -301 -244 c 0
 -301 -214 -344 -188 -364 -173 c 0
 -384 -158 -467 -136 -512 -136 c 8
 -530 -136 -542 -121 -542 -101 c 0
 -542 -81 -532 -66 -512 -66 c 0
 -462 -66 -338 -103 -315 -123 c 0
EndSplineSet
Validated: 1
EndChar

StartChar: t
Encoding: 116 116 19
Width: 0
VWidth: 0
Flags: HW
LayerCount: 2
Fore
SplineSet
-600 -208 m 0
 -606 -214 -613 -216 -620 -216 c 0
 -629 -216 -638 -212 -646 -204 c 0
 -654 -196 -660 -187 -660 -178 c 0
 -660 -171 -656 -164 -650 -158 c 0
 -615 -123 -569 -77 -534 -42 c 4
 -528 -36 -521 -34 -514 -34 c 4
 -505 -34 -496 -38 -488 -46 c 4
 -480 -54 -476 -63 -476 -72 c 4
 -476 -79 -478 -86 -484 -92 c 4
 -519 -127 -565 -173 -600 -208 c 0
EndSplineSet
Validated: 1
EndChar

StartChar: V
Encoding: 86 86 20
Width: 0
VWidth: 0
Flags: HW
LayerCount: 2
Fore
SplineSet
-656 -141 m 0
 -607 -190 -603 -215 -603 -265 c 0
 -603 -315 -646 -378 -688 -420 c 0
 -694 -426 -701 -429 -708 -429 c 0
 -717 -429 -726 -425 -734 -417 c 0
 -742 -409 -747 -400 -747 -391 c 0
 -747 -384 -744 -377 -738 -371 c 0
 -710 -343 -674 -295 -674 -265 c 0
 -674 -235 -685 -211 -706 -190 c 0
 -727 -169 -750 -159 -780 -159 c 0
 -810 -159 -858 -194 -886 -222 c 0
 -892 -228 -899 -231 -906 -231 c 0
 -915 -231 -924 -227 -932 -219 c 0
 -940 -211 -945 -202 -945 -193 c 0
 -945 -186 -942 -179 -936 -173 c 0
 -894 -131 -830 -88 -780 -88 c 0
 -730 -88 -705 -92 -656 -141 c 0
EndSplineSet
Validated: 1
EndChar

StartChar: X
Encoding: 88 88 21
Width: 0
VWidth: 0
Flags: HW
LayerCount: 2
Fore
SplineSet
-916 -200 m 4
 -916 -180 -900 -164 -880 -164 c 4
 -860 -164 -844 -180 -844 -200 c 4
 -844 -220 -860 -236 -880 -236 c 4
 -900 -236 -916 -220 -916 -200 c 4
EndSplineSet
Validated: 1
EndChar

StartChar: T
Encoding: 84 84 23
Width: 0
VWidth: 0
Flags: HW
LayerCount: 2
Fore
SplineSet
-980 -208 m 0
 -986 -214 -993 -216 -1000 -216 c 0
 -1009 -216 -1018 -212 -1026 -204 c 0
 -1034 -196 -1040 -187 -1040 -178 c 0
 -1040 -171 -1036 -164 -1030 -158 c 0
 -995 -123 -949 -77 -914 -42 c 4
 -908 -36 -901 -34 -894 -34 c 4
 -885 -34 -876 -38 -868 -46 c 4
 -860 -54 -856 -63 -856 -72 c 4
 -856 -79 -858 -86 -864 -92 c 4
 -899 -127 -945 -173 -980 -208 c 0
EndSplineSet
Validated: 1
EndChar

StartChar: N
Encoding: 78 78 24
Width: 0
VWidth: 0
Flags: HW
LayerCount: 2
Fore
SplineSet
-695 -123 m 0
 -665 -149 -610 -194 -610 -244 c 0
 -610 -294 -617 -323 -652 -358 c 0
 -684 -390 -730 -400 -765 -400 c 0
 -800 -400 -832 -382 -864 -350 c 0
 -870 -344 -873 -337 -873 -330 c 0
 -873 -321 -869 -312 -861 -304 c 0
 -853 -296 -844 -291 -835 -291 c 0
 -828 -291 -821 -294 -815 -300 c 0
 -798 -317 -785 -329 -765 -329 c 0
 -745 -329 -722 -329 -701 -308 c 0
 -682 -289 -681 -276 -681 -251 c 0
 -681 -249 -681 -247 -681 -244 c 0
 -681 -214 -724 -188 -744 -173 c 0
 -764 -158 -847 -136 -892 -136 c 8
 -910 -136 -922 -121 -922 -101 c 0
 -922 -81 -912 -66 -892 -66 c 0
 -842 -66 -718 -103 -695 -123 c 0
EndSplineSet
Validated: 1
EndChar

StartChar: M
Encoding: 77 77 25
Width: 0
VWidth: 0
Flags: HW
LayerCount: 2
Fore
SplineSet
-974 -220 m 4
 -974 -190 -950 -166 -920 -166 c 4
 -890 -166 -866 -190 -866 -220 c 4
 -866 -250 -890 -274 -920 -274 c 4
 -950 -274 -974 -250 -974 -220 c 4
-695 -123 m 0
 -665 -149 -610 -194 -610 -244 c 0
 -610 -294 -617 -323 -652 -358 c 0
 -684 -390 -730 -400 -765 -400 c 0
 -800 -400 -832 -382 -864 -350 c 0
 -870 -344 -873 -337 -873 -330 c 0
 -873 -321 -869 -312 -861 -304 c 0
 -853 -296 -844 -291 -835 -291 c 0
 -828 -291 -821 -294 -815 -300 c 0
 -798 -317 -785 -329 -765 -329 c 0
 -745 -329 -722 -329 -701 -308 c 0
 -682 -289 -681 -276 -681 -251 c 0
 -681 -249 -681 -247 -681 -244 c 0
 -681 -214 -724 -188 -744 -173 c 0
 -764 -158 -847 -136 -892 -136 c 8
 -910 -136 -922 -121 -922 -101 c 0
 -922 -81 -912 -66 -892 -66 c 0
 -842 -66 -718 -103 -695 -123 c 0
EndSplineSet
Validated: 1
EndChar

StartChar: C
Encoding: 67 67 26
Width: 0
VWidth: 0
Flags: HW
LayerCount: 2
Fore
SplineSet
-675 -328 m 0
 -669 -334 -666 -341 -666 -348 c 0
 -666 -357 -670 -366 -678 -374 c 0
 -686 -382 -695 -387 -704 -387 c 0
 -711 -387 -718 -384 -724 -378 c 0
 -759 -343 -855 -247 -890 -212 c 0
 -896 -206 -899 -199 -899 -192 c 0
 -899 -183 -895 -174 -887 -166 c 0
 -879 -158 -870 -153 -861 -153 c 0
 -854 -153 -847 -156 -841 -162 c 0
 -806 -197 -710 -293 -675 -328 c 0
EndSplineSet
Validated: 1
EndChar

StartChar: B
Encoding: 66 66 27
Width: 0
VWidth: 0
Flags: HW
LayerCount: 2
Fore
SplineSet
-857 -343 m 0
 -887 -317 -942 -272 -942 -222 c 0
 -942 -172 -935 -143 -900 -108 c 0
 -868 -76 -822 -66 -787 -66 c 0
 -752 -66 -720 -84 -688 -116 c 0
 -682 -122 -679 -129 -679 -136 c 0
 -679 -145 -683 -154 -691 -162 c 0
 -699 -170 -708 -175 -717 -175 c 0
 -724 -175 -731 -172 -737 -166 c 0
 -754 -149 -767 -137 -787 -137 c 0
 -807 -137 -830 -137 -851 -158 c 0
 -870 -177 -871 -190 -871 -215 c 0
 -871 -217 -871 -219 -871 -222 c 0
 -871 -252 -828 -278 -808 -293 c 0
 -788 -308 -705 -330 -660 -330 c 8
 -642 -330 -630 -345 -630 -365 c 0
 -630 -385 -640 -400 -660 -400 c 0
 -710 -400 -834 -363 -857 -343 c 0
EndSplineSet
Validated: 1
EndChar

StartChar: comma
Encoding: 44 44 28
Width: 270
VWidth: 0
Flags: HW
LayerCount: 2
Fore
SplineSet
170 135 m 4
 170 127 167 120 162 115 c 4
 156 109 146 105 135 105 c 4
 124 105 113 107 107 113 c 4
 102 118 100 127 100 135 c 4
 100 184 100 266 100 315 c 4
 100 323 103 331 108 336 c 4
 114 342 124 345 135 345 c 4
 146 345 156 342 162 336 c 4
 167 331 170 323 170 315 c 4
 170 266 170 184 170 135 c 4
EndSplineSet
Validated: 1
EndChar

StartChar: period
Encoding: 46 46 29
Width: 390
VWidth: 0
Flags: HW
LayerCount: 2
Fore
SplineSet
290 135 m 4
 290 127 287 120 282 115 c 4
 276 109 266 105 255 105 c 4
 244 105 233 107 227 113 c 4
 222 118 220 127 220 135 c 4
 220 184 220 266 220 315 c 4
 220 323 223 331 228 336 c 4
 234 342 244 345 255 345 c 4
 266 345 276 342 282 336 c 4
 287 331 290 323 290 315 c 4
 290 266 290 184 290 135 c 4
170 135 m 0
 170 127 167 120 162 115 c 0
 156 109 146 105 135 105 c 0
 124 105 113 107 107 113 c 0
 102 118 100 127 100 135 c 0
 100 184 100 266 100 315 c 0
 100 323 103 331 108 336 c 0
 114 342 124 345 135 345 c 0
 146 345 156 342 162 336 c 0
 167 331 170 323 170 315 c 0
 170 266 170 184 170 135 c 0
EndSplineSet
Validated: 1
EndChar

StartChar: hyphen
Encoding: 45 45 30
Width: 500
VWidth: 0
Flags: HW
LayerCount: 2
Fore
SplineSet
370 260 m 4
 390 260 400 245 400 225 c 4
 400 205 390 190 370 190 c 4
 320 190 180 190 130 190 c 0
 110 190 100 205 100 225 c 0
 100 245 110 260 130 260 c 0
 180 260 320 260 370 260 c 4
EndSplineSet
Validated: 1
EndChar

StartChar: exclam
Encoding: 33 33 31
Width: 390
VWidth: 0
Flags: HW
LayerCount: 2
Fore
SplineSet
230 -125 m 4
 230 -133 227 -140 222 -145 c 4
 216 -151 206 -155 195 -155 c 4
 184 -155 173 -153 167 -147 c 4
 162 -142 160 -133 160 -125 c 4
 160 -76 160 6 160 55 c 4
 160 63 163 71 168 76 c 4
 174 82 184 85 195 85 c 4
 206 85 216 82 222 76 c 4
 227 71 230 63 230 55 c 4
 230 6 230 -76 230 -125 c 4
230 395 m 0
 230 387 227 380 222 375 c 0
 216 369 206 365 195 365 c 0
 184 365 173 367 167 373 c 0
 162 378 160 387 160 395 c 0
 160 444 160 526 160 575 c 0
 160 583 163 591 168 596 c 0
 174 602 184 605 195 605 c 0
 206 605 216 602 222 596 c 0
 227 591 230 583 230 575 c 0
 230 526 230 444 230 395 c 0
290 135 m 0
 290 127 287 120 282 115 c 0
 276 109 266 105 255 105 c 0
 244 105 233 107 227 113 c 0
 222 118 220 127 220 135 c 0
 220 184 220 266 220 315 c 0
 220 323 223 331 228 336 c 0
 234 342 244 345 255 345 c 0
 266 345 276 342 282 336 c 0
 287 331 290 323 290 315 c 0
 290 266 290 184 290 135 c 0
170 135 m 0
 170 127 167 120 162 115 c 0
 156 109 146 105 135 105 c 0
 124 105 113 107 107 113 c 0
 102 118 100 127 100 135 c 0
 100 184 100 266 100 315 c 0
 100 323 103 331 108 336 c 0
 114 342 124 345 135 345 c 0
 146 345 156 342 162 336 c 0
 167 331 170 323 170 315 c 0
 170 266 170 184 170 135 c 0
EndSplineSet
Validated: 1
EndChar

StartChar: colon
Encoding: 58 58 32
Width: 270
VWidth: 0
Flags: HW
LayerCount: 2
Fore
SplineSet
170 280 m 4
 170 272 167 265 162 260 c 4
 156 254 146 250 135 250 c 4
 124 250 113 252 107 258 c 4
 102 263 100 272 100 280 c 4
 100 329 100 411 100 460 c 4
 100 468 103 476 108 481 c 4
 114 487 124 490 135 490 c 4
 146 490 156 487 162 481 c 4
 167 476 170 468 170 460 c 4
 170 411 170 329 170 280 c 4
170 -10 m 0
 170 -18 167 -25 162 -30 c 0
 156 -36 146 -40 135 -40 c 0
 124 -40 113 -38 107 -32 c 0
 102 -27 100 -18 100 -10 c 0
 100 39 100 121 100 170 c 0
 100 178 103 186 108 191 c 0
 114 197 124 200 135 200 c 0
 146 200 156 197 162 191 c 0
 167 186 170 178 170 170 c 0
 170 121 170 39 170 -10 c 0
EndSplineSet
Validated: 1
EndChar

StartChar: question
Encoding: 63 63 33
Width: 600
VWidth: 0
Flags: HW
LayerCount: 2
Fore
SplineSet
280 190 m 0
 275 191 250 205 250 225 c 0
 250 245 275 259 280 260 c 0
 286 261 290 261 296 261 c 0
 308 261 325 260 370 260 c 0
 410 260 410 270 420 300 c 0
 421 303 422 306 422 309 c 0
 422 329 400 344 370 350 c 0
 320 360 330 375 280 380 c 0
 270 381 250 395 250 415 c 0
 250 435 270 449 280 450 c 0
 283 450 286 450 291 450 c 0
 361 450 396 416 400 415 c 0
 430 405 453 386 465 370 c 0
 480 350 500 330 500 300 c 0
 500 285 490 255 460 225 c 1
 490 195 500 165 500 150 c 0
 500 120 480 100 465 80 c 0
 453 64 430 45 400 35 c 0
 396 34 382 -1 302 -1 c 0
 293 -1 285 -1 280 0 c 0
 275 1 250 15 250 35 c 0
 250 55 275 69 280 70 c 0
 330 80 320 90 370 100 c 0
 400 106 422 121 422 141 c 0
 422 144 421 147 420 150 c 0
 410 180 410 190 370 190 c 0
 325 190 308 189 296 189 c 0
 290 189 286 189 280 190 c 0
170 280 m 0
 170 272 167 265 162 260 c 0
 156 254 146 250 135 250 c 0
 124 250 113 252 107 258 c 0
 102 263 100 272 100 280 c 0
 100 329 100 411 100 460 c 0
 100 468 103 476 108 481 c 0
 114 487 124 490 135 490 c 0
 146 490 156 487 162 481 c 0
 167 476 170 468 170 460 c 0
 170 411 170 329 170 280 c 0
170 -10 m 0
 170 -18 167 -25 162 -30 c 0
 156 -36 146 -40 135 -40 c 0
 124 -40 113 -38 107 -32 c 0
 102 -27 100 -18 100 -10 c 0
 100 39 100 121 100 170 c 0
 100 178 103 186 108 191 c 0
 114 197 124 200 135 200 c 0
 146 200 156 197 162 191 c 0
 167 186 170 178 170 170 c 0
 170 121 170 39 170 -10 c 0
EndSplineSet
Validated: 1
EndChar

StartChar: w
Encoding: 119 119 34
Width: 389
VWidth: 0
Flags: HW
LayerCount: 2
Fore
SplineSet
170 225 m 0
 170 125 170 80 170 30 c 0
 170 10 155 0 135 0 c 0
 115 0 100 10 100 30 c 0
 100 80 100 125 100 225 c 0
 100 458 221 609 329 702 c 1
 272 758 l 2
 266 764 264 771 264 778 c 0
 264 787 268 796 276 804 c 0
 284 812 293 817 302 817 c 0
 309 817 316 814 322 808 c 2
 384 746 l 1
 437 785 480 808 491 819 c 0
 497 825 504 828 511 828 c 0
 520 828 529 824 537 816 c 0
 545 808 549 799 549 790 c 0
 549 783 546 776 540 770 c 0
 529 759 486 734 434 695 c 1
 488 642 l 2
 494 636 496 629 496 622 c 0
 496 613 492 604 484 596 c 0
 476 588 467 583 458 583 c 0
 451 583 444 586 438 592 c 2
 380 651 l 1
 280 563 170 425 170 225 c 0
EndSplineSet
Validated: 1
EndChar

StartChar: i
Encoding: 105 105 35
Width: 389
VWidth: 0
Flags: HW
LayerCount: 2
Fore
SplineSet
170 225 m 0
 170 125 170 80 170 30 c 0
 170 10 155 0 135 0 c 0
 115 0 100 10 100 30 c 0
 100 80 100 125 100 225 c 0
 100 625 456 784 491 819 c 4
 497 825 504 828 511 828 c 4
 520 828 529 824 537 816 c 4
 545 808 549 799 549 790 c 4
 549 783 546 776 540 770 c 4
 505 735 170 575 170 225 c 0
EndSplineSet
Validated: 1
EndChar

StartChar: u
Encoding: 117 117 36
Width: 0
VWidth: 0
Flags: HW
LayerCount: 2
Fore
SplineSet
-78 571 m 4
 -98 594 -135 718 -135 768 c 4
 -135 788 -120 798 -100 798 c 4
 -80 798 -65 786 -65 768 c 20
 -65 723 -43 640 -28 620 c 4
 -13 600 13 557 43 557 c 4
 46 557 48 557 50 557 c 4
 75 557 88 558 107 577 c 4
 128 598 128 621 128 641 c 4
 128 661 116 674 99 691 c 4
 93 697 90 704 90 711 c 4
 90 720 95 729 103 737 c 4
 111 745 120 749 129 749 c 4
 136 749 143 746 149 740 c 4
 181 708 199 676 199 641 c 4
 199 606 189 560 157 528 c 4
 122 493 93 486 43 486 c 4
 -7 486 -52 541 -78 571 c 4
EndSplineSet
Validated: 1
EndChar

StartChar: o
Encoding: 111 111 37
Width: 389
VWidth: 0
Flags: HW
LayerCount: 2
Fore
SplineSet
170 225 m 1
 170 125 170 80 170 30 c 0
 170 10 155 0 135 0 c 0
 115 0 100 10 100 30 c 0
 100 80 100 125 100 225 c 0
 100 390 160 514 234 605 c 1
 215 652 195 731 195 768 c 0
 195 788 210 798 230 798 c 0
 250 798 265 786 265 768 c 0
 265 739 275 694 285 661 c 1
 378 754 474 802 491 819 c 0
 497 825 504 828 511 828 c 0
 520 828 529 824 537 816 c 0
 545 808 549 799 549 790 c 0
 549 783 546 776 540 770 c 0
 533 763 513 750 486 732 c 1
 513 703 529 673 529 641 c 0
 529 606 519 560 487 528 c 0
 452 493 423 486 373 486 c 0
 337 486 304 515 278 542 c 1
 217 461 170 356 170 225 c 1
429 691 m 0
 395 665 357 633 321 594 c 1
 335 576 353 557 373 557 c 0
 376 557 378 557 380 557 c 0
 405 557 418 558 437 577 c 0
 458 598 458 621 458 641 c 0
 458 661 446 674 429 691 c 0
 429 691 l 0
EndSplineSet
Validated: 1
EndChar

StartChar: e
Encoding: 101 101 38
Width: 0
VWidth: 0
Flags: HW
LayerCount: 2
Fore
SplineSet
-84 561 m 4
 -133 610 -136 635 -136 685 c 4
 -136 735 -94 798 -52 840 c 4
 -46 846 -39 849 -32 849 c 4
 -23 849 -14 845 -6 837 c 4
 2 829 8 820 8 811 c 4
 8 804 4 797 -2 791 c 4
 -30 763 -66 715 -66 685 c 4
 -66 655 -55 631 -34 610 c 4
 -13 589 10 579 40 579 c 4
 70 579 118 614 146 642 c 4
 152 648 159 651 166 651 c 4
 175 651 184 647 192 639 c 4
 200 631 206 622 206 613 c 4
 206 606 202 599 196 593 c 4
 154 551 90 508 40 508 c 4
 -10 508 -35 512 -84 561 c 4
EndSplineSet
Validated: 1
EndChar

StartChar: r
Encoding: 114 114 39
Width: 0
VWidth: 0
Flags: HW
LayerCount: 2
Fore
SplineSet
158 642 m 4
 164 636 166 629 166 622 c 4
 166 613 162 604 154 596 c 4
 146 588 137 583 128 583 c 4
 121 583 114 586 108 592 c 4
 73 627 -23 723 -58 758 c 4
 -64 764 -66 771 -66 778 c 4
 -66 787 -62 796 -54 804 c 4
 -46 812 -37 817 -28 817 c 4
 -21 817 -14 814 -8 808 c 4
 27 773 123 677 158 642 c 4
EndSplineSet
Validated: 1
EndChar

StartChar: R
Encoding: 82 82 40
Width: 0
VWidth: 0
Flags: HW
LayerCount: 2
Fore
SplineSet
-222 642 m 4
 -216 636 -214 629 -214 622 c 4
 -214 613 -218 604 -226 596 c 4
 -234 588 -243 583 -252 583 c 4
 -259 583 -266 586 -272 592 c 4
 -307 627 -403 723 -438 758 c 4
 -444 764 -446 771 -446 778 c 4
 -446 787 -442 796 -434 804 c 4
 -426 812 -417 817 -408 817 c 4
 -401 817 -394 814 -388 808 c 4
 -353 773 -257 677 -222 642 c 4
EndSplineSet
Validated: 1
EndChar

StartChar: U
Encoding: 85 85 41
Width: 0
VWidth: 0
Flags: HW
LayerCount: 2
Fore
SplineSet
-458 571 m 4
 -478 594 -515 718 -515 768 c 4
 -515 788 -500 798 -480 798 c 4
 -460 798 -445 786 -445 768 c 20
 -445 723 -423 640 -408 620 c 4
 -393 600 -367 557 -337 557 c 4
 -334 557 -332 557 -330 557 c 4
 -305 557 -292 558 -273 577 c 4
 -252 598 -252 621 -252 641 c 4
 -252 661 -264 674 -281 691 c 4
 -287 697 -290 704 -290 711 c 4
 -290 720 -285 729 -277 737 c 4
 -269 745 -260 749 -251 749 c 4
 -244 749 -237 746 -231 740 c 4
 -199 708 -181 676 -181 641 c 4
 -181 606 -191 560 -223 528 c 4
 -258 493 -287 486 -337 486 c 4
 -387 486 -432 541 -458 571 c 4
EndSplineSet
Validated: 1
EndChar

StartChar: one
Encoding: 49 49 42
Width: 650
VWidth: 0
Flags: HW
LayerCount: 2
Fore
SplineSet
290 260 m 1
 290 265 290 290 290 320 c 0
 290 350 260 380 230 380 c 0
 200 380 170 350 170 320 c 4
 170 290 200 260 230 260 c 0
 260 260 286 260 290 260 c 1
360 190 m 1
 360 -210 -26 -364 -61 -399 c 0
 -67 -405 -74 -408 -81 -408 c 0
 -90 -408 -99 -404 -107 -396 c 0
 -115 -388 -119 -379 -119 -370 c 0
 -119 -363 -116 -356 -110 -350 c 0
 -75 -315 290 -160 290 190 c 1
 277 190 240 190 230 190 c 0
 150 190 100 240 100 320 c 0
 100 400 150 450 230 450 c 0
 316 450 360 400 360 320 c 0
 360 310 360 276 360 260 c 1
 446 260 470 260 520 260 c 0
 540 260 550 245 550 225 c 0
 550 205 540 190 520 190 c 0
 470 190 436 190 360 190 c 1
EndSplineSet
Validated: 1
EndChar

StartChar: zero
Encoding: 48 48 43
Width: 550
VWidth: 0
Flags: HW
LayerCount: 2
Fore
SplineSet
275 375 m 0
 344 375 366 360 401 325 c 0
 436 290 450 164 450 105 c 0
 450 97 447 90 442 85 c 0
 436 79 426 75 415 75 c 0
 404 75 394 78 388 84 c 0
 383 89 380 96 380 104 c 0
 380 144 371 254 350 275 c 0
 329 296 305 305 275 305 c 0
 245 305 221 296 200 275 c 0
 179 254 170 145 170 105 c 0
 170 97 167 90 162 85 c 0
 156 79 146 75 135 75 c 0
 124 75 114 78 108 84 c 0
 103 89 100 96 100 104 c 0
 100 163 115 290 150 325 c 0
 185 360 206 375 275 375 c 0
EndSplineSet
Validated: 1
EndChar

StartChar: two
Encoding: 50 50 44
Width: 650
VWidth: 0
Flags: HW
LayerCount: 2
Fore
SplineSet
290 190 m 5
 286 190 260 190 230 190 c 4
 200 190 170 160 170 130 c 4
 170 100 200 70 230 70 c 4
 260 70 290 100 290 130 c 4
 290 160 290 185 290 190 c 5
360 260 m 5
 436 260 470 260 520 260 c 4
 540 260 550 245 550 225 c 4
 550 205 540 190 520 190 c 4
 470 190 446 190 360 190 c 5
 360 174 360 140 360 130 c 4
 360 50 316 0 230 0 c 4
 150 0 100 50 100 130 c 4
 100 210 150 260 230 260 c 4
 240 260 277 260 290 260 c 5
 290 660 676 814 711 849 c 4
 717 855 724 858 731 858 c 4
 740 858 749 854 757 846 c 4
 765 838 769 829 769 820 c 4
 769 813 766 806 760 800 c 4
 725 765 360 610 360 260 c 5
EndSplineSet
Validated: 1
EndChar

StartChar: five
Encoding: 53 53 45
Width: 650
VWidth: 0
Flags: HW
LayerCount: 2
Fore
SplineSet
360 190 m 5
 360 185 360 160 360 130 c 4
 360 100 390 70 420 70 c 4
 450 70 480 100 480 130 c 4
 480 160 450 190 420 190 c 4
 390 190 364 190 360 190 c 5
290 260 m 5
 290 660 676 814 711 849 c 4
 717 855 724 858 731 858 c 4
 740 858 749 854 757 846 c 4
 765 838 769 829 769 820 c 4
 769 813 766 806 760 800 c 4
 725 765 360 610 360 260 c 5
 373 260 410 260 420 260 c 4
 500 260 550 210 550 130 c 4
 550 50 500 0 420 0 c 4
 334 0 290 50 290 130 c 4
 290 140 290 174 290 190 c 5
 204 190 180 190 130 190 c 4
 110 190 100 205 100 225 c 4
 100 245 110 260 130 260 c 4
 180 260 214 260 290 260 c 5
EndSplineSet
Validated: 1
EndChar

StartChar: four
Encoding: 52 52 46
Width: 650
VWidth: 0
Flags: HW
LayerCount: 2
Fore
SplineSet
360 260 m 5
 364 260 390 260 420 260 c 4
 450 260 480 290 480 320 c 4
 480 350 450 380 420 380 c 4
 390 380 360 350 360 320 c 4
 360 290 360 265 360 260 c 5
290 190 m 5
 214 190 180 190 130 190 c 4
 110 190 100 205 100 225 c 4
 100 245 110 260 130 260 c 4
 180 260 204 260 290 260 c 5
 290 276 290 310 290 320 c 4
 290 400 334 450 420 450 c 4
 500 450 550 400 550 320 c 4
 550 240 500 190 420 190 c 4
 410 190 373 190 360 190 c 5
 360 -210 -26 -364 -61 -399 c 4
 -67 -405 -74 -408 -81 -408 c 4
 -90 -408 -99 -404 -107 -396 c 4
 -115 -388 -119 -379 -119 -370 c 4
 -119 -363 -116 -356 -110 -350 c 4
 -75 -315 290 -160 290 190 c 5
EndSplineSet
Validated: 1
EndChar

StartChar: seven
Encoding: 55 55 47
Width: 650
VWidth: 0
Flags: HW
LayerCount: 2
Fore
SplineSet
420 380 m 4
 390 380 370 380 360 380 c 13
 360 380 360 265 360 260 c 5
 364 260 390 260 420 260 c 4
 450 260 480 290 480 320 c 4
 480 350 450 380 420 380 c 4
230 380 m 4
 200 380 170 350 170 320 c 4
 170 290 200 260 230 260 c 4
 260 260 286 260 290 260 c 5
 290 380 l 21
 280 380 260 380 230 380 c 4
360 190 m 5
 360 -210 -26 -364 -61 -399 c 4
 -67 -405 -74 -408 -81 -408 c 4
 -90 -408 -99 -404 -107 -396 c 4
 -115 -388 -119 -379 -119 -370 c 4
 -119 -363 -116 -356 -110 -350 c 4
 -75 -315 290 -160 290 190 c 5
 277 190 240 190 230 190 c 4
 150 190 100 240 100 320 c 4
 100 400 150 450 230 450 c 4
 316 450 334 450 420 450 c 4
 500 450 550 400 550 320 c 4
 550 240 500 190 420 190 c 4
 410 190 436 190 360 190 c 5
EndSplineSet
Validated: 1
EndChar

StartChar: eight
Encoding: 56 56 48
Width: 650
VWidth: 0
Flags: HW
LayerCount: 2
Fore
SplineSet
230 70 m 4
 260 70 280 70 290 70 c 13
 290 70 290 185 290 190 c 5
 286 190 260 190 230 190 c 4
 200 190 170 160 170 130 c 4
 170 100 200 70 230 70 c 4
420 70 m 4
 450 70 480 100 480 130 c 4
 480 160 450 190 420 190 c 4
 390 190 364 190 360 190 c 5
 360 70 l 21
 370 70 390 70 420 70 c 4
290 260 m 5
 290 660 676 814 711 849 c 4
 717 855 724 858 731 858 c 4
 740 858 749 854 757 846 c 4
 765 838 769 829 769 820 c 4
 769 813 766 806 760 800 c 4
 725 765 360 610 360 260 c 5
 373 260 410 260 420 260 c 4
 500 260 550 210 550 130 c 4
 550 50 500 0 420 0 c 4
 334 0 316 0 230 0 c 4
 150 0 100 50 100 130 c 4
 100 210 150 260 230 260 c 4
 240 260 214 260 290 260 c 5
EndSplineSet
Validated: 1
EndChar

StartChar: three
Encoding: 51 51 49
Width: 650
VWidth: 0
Flags: HW
LayerCount: 2
Fore
SplineSet
346 95 m 5
 276 -217 -30 -368 -61 -399 c 4
 -67 -405 -74 -408 -81 -408 c 4
 -90 -408 -99 -404 -107 -396 c 4
 -115 -388 -119 -379 -119 -370 c 4
 -119 -363 -116 -356 -110 -350 c 4
 -80 -320 200 -172 273 95 c 5
 230 95 l 6
 150 95 100 145 100 225 c 4
 100 305 150 355 230 355 c 6
 300 355 l 5
 349 660 559 788 590 819 c 4
 596 825 603 828 610 828 c 4
 619 828 628 824 636 816 c 4
 644 808 648 799 648 790 c 4
 648 783 645 776 639 770 c 4
 609 740 421 615 372 355 c 5
 520 355 l 6
 540 355 550 340 550 320 c 4
 550 300 540 285 520 285 c 6
 362 285 l 5
 360 266 360 246 360 225 c 4
 360 204 359 184 357 165 c 5
 520 165 l 6
 540 165 550 150 550 130 c 4
 550 110 540 95 520 95 c 6
 346 95 l 5
286 165 m 5
 288 184 290 204 290 225 c 4
 290 246 291 266 292 285 c 5
 230 285 l 6
 200 285 170 255 170 225 c 4
 170 195 200 165 230 165 c 6
 286 165 l 5
EndSplineSet
Validated: 1
EndChar

StartChar: six
Encoding: 54 54 50
Width: 650
VWidth: 0
Flags: HW
LayerCount: 2
Fore
SplineSet
420 355 m 2
 500 355 550 305 550 225 c 0
 550 145 500 95 420 95 c 2
 346 95 l 1
 276 -217 -30 -368 -61 -399 c 0
 -67 -405 -74 -408 -81 -408 c 0
 -90 -408 -99 -404 -107 -396 c 0
 -115 -388 -119 -379 -119 -370 c 0
 -119 -363 -116 -356 -110 -350 c 0
 -80 -320 200 -172 273 95 c 1
 130 95 l 2
 110 95 100 110 100 130 c 0
 100 150 110 165 130 165 c 2
 286 165 l 1
 288 184 290 204 290 225 c 0
 290 246 291 266 292 285 c 1
 130 285 l 2
 110 285 100 300 100 320 c 0
 100 340 110 355 130 355 c 2
 300 355 l 1
 349 660 559 788 590 819 c 0
 596 825 603 828 610 828 c 0
 619 828 628 824 636 816 c 0
 644 808 648 799 648 790 c 0
 648 783 645 776 639 770 c 0
 609 740 421 615 372 355 c 1
 420 355 l 2
362 285 m 1
 360 266 360 246 360 225 c 0
 360 204 359 184 357 165 c 1
 420 165 l 2
 450 165 480 195 480 225 c 0
 480 255 450 285 420 285 c 2
 362 285 l 1
EndSplineSet
Validated: 1
EndChar

StartChar: nine
Encoding: 57 57 51
Width: 650
VWidth: 0
Flags: HW
LayerCount: 2
Fore
SplineSet
420 355 m 6
 500 355 550 305 550 225 c 4
 550 145 500 95 420 95 c 6
 346 95 l 5
 276 -217 -30 -368 -61 -399 c 4
 -67 -405 -74 -408 -81 -408 c 4
 -90 -408 -99 -404 -107 -396 c 4
 -115 -388 -119 -379 -119 -370 c 4
 -119 -363 -116 -356 -110 -350 c 4
 -80 -320 200 -172 273 95 c 5
 230 95 l 6
 150 95 100 145 100 225 c 4
 100 305 150 355 230 355 c 6
 300 355 l 5
 349 660 559 788 590 819 c 4
 596 825 603 828 610 828 c 4
 619 828 628 824 636 816 c 4
 644 808 648 799 648 790 c 4
 648 783 645 776 639 770 c 4
 609 740 421 615 372 355 c 5
 420 355 l 6
230 285 m 6
 200 285 170 255 170 225 c 4
 170 195 200 165 230 165 c 6
 286 165 l 5
 288 184 290 204 290 225 c 4
 290 246 291 266 292 285 c 5
 230 285 l 6
357 165 m 5
 420 165 l 6
 450 165 480 195 480 225 c 4
 480 255 450 285 420 285 c 6
 362 285 l 5
 360 266 360 246 360 225 c 4
 360 204 359 184 357 165 c 5
EndSplineSet
Validated: 1
EndChar

StartChar: quotesingle
Encoding: 39 39 52
Width: 0
VWidth: 0
Flags: HW
LayerCount: 2
Fore
SplineSet
100 504 m 4
 100 534 124 558 154 558 c 4
 184 558 208 534 208 504 c 4
 208 474 184 450 154 450 c 4
 124 450 100 474 100 504 c 4
EndSplineSet
Validated: 1
EndChar

StartChar: greater
Encoding: 62 62 53
Width: 745
VWidth: 0
Flags: HW
LayerCount: 2
Fore
SplineSet
100 224 m 0
 100 348 199 448 322 448 c 0
 433 448 524 367 541 260 c 1
 615 260 l 2
 635 260 645 245 645 225 c 0
 645 205 635 190 615 190 c 2
 541 190 l 1
 525 82 434 0 322 0 c 0
 199 0 100 100 100 224 c 0
173 224 m 0
 173 139 241 71 326 71 c 0
 399 71 460 122 475 190 c 1
 355 190 l 2
 335 190 325 205 325 225 c 0
 325 245 335 260 355 260 c 2
 475 260 l 1
 459 327 399 377 326 377 c 0
 241 377 173 309 173 224 c 0
EndSplineSet
Validated: 1
EndChar

StartChar: less
Encoding: 60 60 54
Width: 745
VWidth: 0
Flags: HW
LayerCount: 2
Fore
SplineSet
645 224 m 4
 645 100 546 0 423 0 c 4
 311 0 220 82 204 190 c 5
 130 190 l 6
 110 190 100 205 100 225 c 4
 100 245 110 260 130 260 c 6
 204 260 l 5
 221 367 312 448 423 448 c 4
 546 448 645 348 645 224 c 4
572 224 m 4
 572 309 504 377 419 377 c 4
 346 377 286 327 270 260 c 5
 390 260 l 6
 410 260 420 245 420 225 c 4
 420 205 410 190 390 190 c 6
 270 190 l 5
 285 122 346 71 419 71 c 4
 504 71 572 139 572 224 c 4
EndSplineSet
EndChar

StartChar: equal
Encoding: 61 61 55
Width: 845
VWidth: 0
Flags: HW
LayerCount: 2
Fore
SplineSet
715 260 m 2
 735 260 745 245 745 225 c 0
 745 205 735 190 715 190 c 2
 641 190 l 1
 625 82 534 0 422 0 c 0
 310 0 219 82 203 190 c 1
 130 190 l 2
 110 190 100 205 100 225 c 0
 100 245 110 260 130 260 c 2
 203 260 l 1
 220 367 311 448 422 448 c 0
 533 448 624 367 641 260 c 1
 715 260 l 2
575 260 m 1
 559 327 499 377 426 377 c 0
 353 377 293 327 277 260 c 1
 575 260 l 1
277 190 m 1
 292 122 353 71 426 71 c 0
 499 71 560 122 575 190 c 1
 277 190 l 1
EndSplineSet
Validated: 1
EndChar

StartChar: uni0000
Encoding: 0 0 56
Width: 600
VWidth: 0
Flags: HW
LayerCount: 2
Fore
SplineSet
320 190 m 4
 314 189 310 189 304 189 c 4
 292 189 275 190 230 190 c 4
 190 190 190 180 180 150 c 4
 179 147 178 144 178 141 c 4
 178 121 200 106 230 100 c 4
 280 90 270 80 320 70 c 4
 325 69 350 55 350 35 c 4
 350 15 325 1 320 0 c 4
 315 -1 307 -1 298 -1 c 4
 218 -1 204 34 200 35 c 4
 170 45 147 64 135 80 c 4
 120 100 100 120 100 150 c 4
 100 165 110 195 140 225 c 5
 110 255 100 285 100 300 c 4
 100 330 120 350 135 370 c 4
 147 386 170 405 200 415 c 4
 204 416 239 450 309 450 c 4
 314 450 317 450 320 450 c 4
 330 449 350 435 350 415 c 4
 350 395 330 381 320 380 c 4
 270 375 280 360 230 350 c 4
 200 344 178 329 178 309 c 4
 178 306 179 303 180 300 c 4
 190 270 190 260 230 260 c 4
 275 260 292 261 304 261 c 4
 310 261 314 261 320 260 c 4
 325 259 350 245 350 225 c 4
 350 205 325 191 320 190 c 4
430 280 m 4
 430 329 430 411 430 460 c 4
 430 468 433 476 438 481 c 4
 444 487 454 490 465 490 c 4
 476 490 486 487 492 481 c 4
 497 476 500 468 500 460 c 4
 500 411 500 329 500 280 c 4
 500 272 498 263 493 258 c 4
 487 252 476 250 465 250 c 4
 454 250 444 254 438 260 c 4
 433 265 430 272 430 280 c 4
430 -10 m 4
 430 39 430 121 430 170 c 4
 430 178 433 186 438 191 c 4
 444 197 454 200 465 200 c 4
 476 200 486 197 492 191 c 4
 497 186 500 178 500 170 c 4
 500 121 500 39 500 -10 c 4
 500 -18 498 -27 493 -32 c 4
 487 -38 476 -40 465 -40 c 4
 454 -40 444 -36 438 -30 c 4
 433 -25 430 -18 430 -10 c 4
EndSplineSet
EndChar

StartChar: q
Encoding: 113 113 57
Width: 389
VWidth: 0
Flags: HW
LayerCount: 2
Fore
SplineSet
170 225 m 0
 170 125 170 80 170 30 c 0
 170 10 155 0 135 0 c 0
 115 0 100 10 100 30 c 0
 100 80 100 125 100 225 c 0
 100 380 153 500 221 589 c 1
 196 622 194 645 194 685 c 0
 194 735 236 798 278 840 c 0
 284 846 291 849 298 849 c 0
 307 849 316 845 324 837 c 0
 332 829 338 820 338 811 c 0
 338 804 334 797 328 791 c 0
 300 763 264 715 264 685 c 0
 264 671 266 659 271 647 c 1
 368 749 473 801 491 819 c 0
 497 825 504 828 511 828 c 0
 520 828 529 824 537 816 c 0
 545 808 549 799 549 790 c 0
 549 783 546 776 540 770 c 0
 521 751 413 695 319 592 c 1
 334 583 351 579 370 579 c 0
 400 579 448 614 476 642 c 0
 482 648 489 651 496 651 c 0
 505 651 514 647 522 639 c 0
 530 631 536 622 536 613 c 0
 536 606 532 599 526 593 c 0
 484 551 420 508 370 508 c 0
 330 508 307 510 274 536 c 1
 215 456 170 353 170 225 c 0
EndSplineSet
Validated: 1
EndChar

StartChar: E
Encoding: 69 69 58
Width: 0
VWidth: 0
Flags: HW
LayerCount: 2
Fore
SplineSet
-464 561 m 4
 -513 610 -516 635 -516 685 c 4
 -516 735 -474 798 -432 840 c 4
 -426 846 -419 849 -412 849 c 4
 -403 849 -394 845 -386 837 c 4
 -378 829 -372 820 -372 811 c 4
 -372 804 -376 797 -382 791 c 4
 -410 763 -446 715 -446 685 c 4
 -446 655 -435 631 -414 610 c 4
 -393 589 -370 579 -340 579 c 4
 -310 579 -262 614 -234 642 c 4
 -228 648 -221 651 -214 651 c 4
 -205 651 -196 647 -188 639 c 4
 -180 631 -174 622 -174 613 c 4
 -174 606 -178 599 -184 593 c 4
 -226 551 -290 508 -340 508 c 4
 -390 508 -415 512 -464 561 c 4
EndSplineSet
Validated: 1
EndChar
